<svg xmlns="http://www.w3.org/2000/svg" viewBox="0 0 761.2 83.47"><defs><style>.cls-1{fill:#fff;}.cls-2{fill:none;stroke:#fff;stroke-miterlimit:10;stroke-width:3px;}</style></defs><title>Asset 5</title><g id="Layer_2" data-name="Layer 2"><g id="Blue_Icon_Bar" data-name="Blue Icon Bar"><path class="cls-1" d="M388.87,34.79H377.12V6.21h4.31V30.51h7.44Z"/><path class="cls-1" d="M398.66,5.85a6.58,6.58,0,0,1,4.85,2,6.62,6.62,0,0,1,2,4.84v15.6a6.83,6.83,0,1,1-13.67,0V12.69a6.58,6.58,0,0,1,2-4.85A6.58,6.58,0,0,1,398.66,5.85ZM401,12.6a2.45,2.45,0,0,0-2.46-2.46,2.41,2.41,0,0,0-1.76.72,2.36,2.36,0,0,0-.73,1.75V28.25a2.36,2.36,0,0,0,.73,1.75,2.42,2.42,0,0,0,1.76.72A2.45,2.45,0,0,0,401,28.25Z"/><path class="cls-1" d="M426.18,6.21h4.53l-4.47,28.58h-4.11l-2.46-15.73-2.29,15.73h-4.13L408.47,6.21H413l2.26,15.31,2.08-15.31h4.52l2.26,15.29Z"/><path class="cls-1" d="M375.4,66.22a8,8,0,0,1-1.55,5.11,5.59,5.59,0,0,1-3,2,8.09,8.09,0,0,1-2.4.32,6.78,6.78,0,0,1-4.2-1.25,7,7,0,0,1-2.2-2.79,11.27,11.27,0,0,1-.95-4l4.11-.3a6.24,6.24,0,0,0,1.32,3.62,2.21,2.21,0,0,0,1.78.8,2.67,2.67,0,0,0,2.26-1.39,3.46,3.46,0,0,0,.43-1.89,5.26,5.26,0,0,0-1.62-3.54l-3.83-3.63a16.35,16.35,0,0,1-3-3.72,8.6,8.6,0,0,1-1-4,7,7,0,0,1,2.62-5.91,6.52,6.52,0,0,1,4-1.21,7.3,7.3,0,0,1,3.95,1,5.93,5.93,0,0,1,2.06,2.24A8.28,8.28,0,0,1,375.2,51l-4.13.75a5,5,0,0,0-1-2.74,2.11,2.11,0,0,0-1.71-.71,2,2,0,0,0-1.8,1,4,4,0,0,0-.5,2.1,6.3,6.3,0,0,0,1.69,4,14.19,14.19,0,0,0,1.92,1.83q1.51,1.26,2,1.76a14.63,14.63,0,0,1,2.46,3.15,12.16,12.16,0,0,1,.66,1.35A7.84,7.84,0,0,1,375.4,66.22Z"/><path class="cls-1" d="M385.78,73.66a6.78,6.78,0,0,1-6.82-6.8V44.75h4.22V66.81a2.36,2.36,0,0,0,.73,1.75,2.42,2.42,0,0,0,1.76.72,2.45,2.45,0,0,0,2.46-2.46V44.75h4.49V66.86a6.5,6.5,0,0,1-2,4.84A6.67,6.67,0,0,1,385.78,73.66Z"/><path class="cls-1" d="M403.23,73.7a6.84,6.84,0,0,1-6.84-6.82V51.28a6.83,6.83,0,1,1,13.67,0v3.26h-4.47V51.19a2.49,2.49,0,0,0-2.49-2.49,2.36,2.36,0,0,0-1.75.73,2.41,2.41,0,0,0-.72,1.76V66.84a2.45,2.45,0,0,0,2.46,2.46,2.42,2.42,0,0,0,1.76-.72,2.35,2.35,0,0,0,.73-1.74V61.22h-2.4V56.89h6.87v10a6.82,6.82,0,0,1-6.82,6.82Z"/><path class="cls-1" d="M418.56,66.77l-1,6.57H413l4.86-28.58h5.93l4.79,28.58h-4.53l-1-6.57Zm2.26-15.47-1.6,11.27h3.19Z"/><path class="cls-1" d="M439,44.75q3.6,0,5.29,2a7.21,7.21,0,0,1,1.48,4.84v4.15a6.68,6.68,0,0,1-2.3,5.13l3.19,12.48H442l-2.61-10.77h-2.87V73.34h-4.31V44.75Zm2.58,6.89a2.19,2.19,0,0,0-2.46-2.49h-2.6V58.3h2.6a2.35,2.35,0,0,0,1.75-.73,2.41,2.41,0,0,0,.72-1.76Z"/><path class="cls-1" d="M516.69,22.68V34.79h-4.31V6.21h4.31V18.35h5.2V6.21h4.31V34.79h-4.31V22.68Z"/><path class="cls-1" d="M534.37,34.79h-4.31V6.21h4.31Z"/><path class="cls-1" d="M545,35.16a6.84,6.84,0,0,1-6.84-6.82V12.74A6.84,6.84,0,0,1,545,5.89a6.54,6.54,0,0,1,4.84,2,6.63,6.63,0,0,1,2,4.84V16h-4.47V12.64a2.49,2.49,0,0,0-2.49-2.49,2.36,2.36,0,0,0-1.75.73,2.41,2.41,0,0,0-.72,1.76V28.29a2.45,2.45,0,0,0,2.46,2.46,2.42,2.42,0,0,0,1.76-.72,2.35,2.35,0,0,0,.73-1.74V22.68H545V18.35h6.87v10A6.82,6.82,0,0,1,545,35.16Z"/><path class="cls-1" d="M559.9,22.68V34.79h-4.31V6.21h4.31V18.35h5.2V6.21h4.31V34.79H565.1V22.68Z"/><path class="cls-1" d="M494.56,44.75a6.57,6.57,0,0,1,5,2,6.88,6.88,0,0,1,1.73,4.84v4.15a6.65,6.65,0,0,1-2,4.84,6.45,6.45,0,0,1-4.78,2h-2.49V73.34h-4.31V44.75Zm2.58,6.89a2.46,2.46,0,0,0-.67-1.8,2.4,2.4,0,0,0-1.79-.68h-2.6V58.3h2.6a2.36,2.36,0,0,0,1.75-.73,2.41,2.41,0,0,0,.72-1.76Z"/><path class="cls-1" d="M511.56,44.75q3.6,0,5.29,2a7.21,7.21,0,0,1,1.48,4.84v4.15a6.68,6.68,0,0,1-2.3,5.13l3.19,12.48h-4.66l-2.61-10.77h-2.87V73.34h-4.31V44.75Zm2.58,6.89a2.19,2.19,0,0,0-2.46-2.49h-2.6V58.3h2.6a2.36,2.36,0,0,0,1.75-.73,2.41,2.41,0,0,0,.72-1.76Z"/><path class="cls-1" d="M529,44.39a6.83,6.83,0,0,1,6.84,6.84v15.6a6.83,6.83,0,1,1-13.67,0V51.23A6.84,6.84,0,0,1,529,44.39Zm2.35,6.75a2.45,2.45,0,0,0-2.46-2.46,2.41,2.41,0,0,0-1.76.72,2.36,2.36,0,0,0-.73,1.75V66.79a2.36,2.36,0,0,0,.73,1.75,2.42,2.42,0,0,0,1.76.72,2.45,2.45,0,0,0,2.46-2.46Z"/><path class="cls-1" d="M543.4,49.09h-4.59V44.75h13.46v4.33h-4.56V73.34H543.4Z"/><path class="cls-1" d="M555.74,73.34V44.73H568v4.33h-8v7.8h5.82V61.2h-5.82V69h8v4.33Z"/><path class="cls-1" d="M575.29,73.34H571V44.75h4.31Z"/><path class="cls-1" d="M584,44.73,589.71,64V44.73H594V73.34h-4.63L583.46,55V73.34h-4.31V44.73Z"/><path class="cls-1" d="M639.94,6.19l5.72,19.23V6.19H650V34.79h-4.63l-5.93-18.32V34.79H635.1V6.19Z"/><path class="cls-1" d="M660.62,35.11a6.78,6.78,0,0,1-6.82-6.8V6.21H658V28.27a2.36,2.36,0,0,0,.73,1.75,2.42,2.42,0,0,0,1.76.72A2.45,2.45,0,0,0,663,28.27V6.21h4.49V28.32a6.5,6.5,0,0,1-2,4.84A6.67,6.67,0,0,1,660.62,35.11Z"/><path class="cls-1" d="M675.5,10.55h-4.58V6.21h13.46v4.33h-4.56V34.79H675.5Z"/><path class="cls-1" d="M694.64,6.21q3.6,0,5.29,2A7.21,7.21,0,0,1,701.41,13v4.15a6.68,6.68,0,0,1-2.3,5.13l3.19,12.48h-4.66L695,24h-2.87V34.79h-4.31V6.21Zm2.58,6.89a2.19,2.19,0,0,0-2.46-2.49h-2.6v9.15h2.6A2.35,2.35,0,0,0,696.5,19a2.41,2.41,0,0,0,.72-1.76Z"/><path class="cls-1" d="M710.31,34.79H706V6.21h4.31Z"/><path class="cls-1" d="M714.16,34.79V6.19h12.27v4.33h-8v7.8h5.82v4.33h-5.82v7.8h8v4.33Z"/><path class="cls-1" d="M734.24,6.19,740,25.41V6.19h4.31V34.79h-4.63l-5.93-18.32V34.79H729.4V6.19Z"/><path class="cls-1" d="M752.33,10.55h-4.59V6.21H761.2v4.33h-4.56V34.79h-4.31Z"/><path class="cls-1" d="M671.12,66.49a6.63,6.63,0,0,1-2,4.84,6.49,6.49,0,0,1-4.79,2h-6.77V44.73h6.77a6.48,6.48,0,0,1,4.8,2,6.62,6.62,0,0,1,2,4.81Zm-9.24,2.58h2.6a2.3,2.3,0,0,0,1.73-.74,2.45,2.45,0,0,0,.71-1.75v-15a2.41,2.41,0,0,0-.72-1.76,2.33,2.33,0,0,0-1.72-.73h-2.6Z"/><path class="cls-1" d="M674.9,73.34V44.73h12.27v4.33h-8v7.8H685V61.2h-5.82V69h8v4.33Z"/><path class="cls-1" d="M695,44.73,700.71,64V44.73H705V73.34h-4.63L694.45,55V73.34h-4.31V44.73Z"/><path class="cls-1" d="M722.88,66.22a8,8,0,0,1-1.55,5.11,5.59,5.59,0,0,1-3,2,8.09,8.09,0,0,1-2.4.32,6.78,6.78,0,0,1-4.2-1.25,7,7,0,0,1-2.2-2.79,11.28,11.28,0,0,1-.95-4l4.11-.3A6.24,6.24,0,0,0,714,68.91a2.21,2.21,0,0,0,1.78.8,2.68,2.68,0,0,0,2.26-1.39,3.46,3.46,0,0,0,.43-1.89,5.26,5.26,0,0,0-1.62-3.54l-3.83-3.63a16.33,16.33,0,0,1-3-3.72,8.6,8.6,0,0,1-1-4,7,7,0,0,1,2.62-5.91,6.52,6.52,0,0,1,4-1.21,7.29,7.29,0,0,1,3.95,1,5.93,5.93,0,0,1,2.06,2.24,8.26,8.26,0,0,1,.95,3.31l-4.13.75a5,5,0,0,0-1-2.74,2.11,2.11,0,0,0-1.71-.71,2,2,0,0,0-1.8,1,4,4,0,0,0-.5,2.1,6.3,6.3,0,0,0,1.69,4,14.21,14.21,0,0,0,1.92,1.83q1.51,1.26,2,1.76a14.63,14.63,0,0,1,2.46,3.15,12.33,12.33,0,0,1,.66,1.35A7.86,7.86,0,0,1,722.88,66.22Z"/><path class="cls-1" d="M726.46,73.34V44.73h12.27v4.33h-8v7.8h5.82V61.2h-5.82V69h8v4.33Z"/><line class="cls-2" x1="340.61" y1="1.8" x2="340.61" y2="83.47"/><line class="cls-2" x1="467.23" y1="1.8" x2="467.23" y2="83.47"/><line class="cls-2" x1="614.56" y1="1.8" x2="614.56" y2="83.47"/><path class="cls-1" d="M202.61,2.91a29.4,29.4,0,1,1-29.4,29.4,29.43,29.43,0,0,1,29.4-29.4m0-2.91a32.31,32.31,0,1,0,32.31,32.31A32.31,32.31,0,0,0,202.61,0Z"/><rect class="cls-1" x="178.35" y="45.64" width="18.95" height="2.91" transform="translate(21.72 146.62) rotate(-45)"/><rect class="cls-1" x="206.66" y="16.35" width="20.94" height="2.91" transform="translate(51.01 158.74) rotate(-45)"/><path class="cls-1" d="M199.64,20.7h-.06c-1.12-.41-3.17-1.12-4.17-1.41a5.6,5.6,0,0,1-1.85-1.2,1.79,1.79,0,0,0-2.76-2.23l-5.49,5.49a1.77,1.77,0,0,0,0,2.53,1.82,1.82,0,0,0,2.23.24,5.6,5.6,0,0,1,1.2,1.85c.29,1.06,1.06,3.29,1.38,4.2a.68.68,0,0,0,.09.26l0,0,.09.09a10,10,0,0,0,2.44,3.73l12.66,12.66a3.63,3.63,0,0,0,5.17.06l5.88-5.88a3.67,3.67,0,0,0-.09-5.2L203.69,23.29A10,10,0,0,0,199.64,20.7Z"/><path class="cls-1" d="M183.47,76.27H185v6.31h-1.44l-2.86-3.77v3.77h-1.54V76.27h1.45l2.87,3.8Z"/><path class="cls-1" d="M191,76.59a3.14,3.14,0,0,1,1.67,2.82A3.19,3.19,0,0,1,191,82.26a3.74,3.74,0,0,1-3.48,0,3.17,3.17,0,0,1-1.22-1.18,3.23,3.23,0,0,1-.45-1.68,3.14,3.14,0,0,1,.45-1.66,3.18,3.18,0,0,1,1.22-1.16,3.8,3.8,0,0,1,3.48,0Zm-2.59,1.22a1.74,1.74,0,0,0-.63.67,1.93,1.93,0,0,0-.23.94,1.91,1.91,0,0,0,.24.95,1.83,1.83,0,0,0,.63.68,1.6,1.6,0,0,0,.86.25,1.58,1.58,0,0,0,.86-.25,1.74,1.74,0,0,0,.62-.68,2.1,2.1,0,0,0,0-1.89,1.7,1.7,0,0,0-.62-.67,1.6,1.6,0,0,0-.86-.24A1.64,1.64,0,0,0,188.39,77.81Z"/><path class="cls-1" d="M201.93,76.66a2.91,2.91,0,0,1,1.18,1.11,3.39,3.39,0,0,1,0,3.29,2.89,2.89,0,0,1-1.21,1.12,3.88,3.88,0,0,1-1.79.4h-2.66V76.27h2.72A3.74,3.74,0,0,1,201.93,76.66ZM201.07,81a1.53,1.53,0,0,0,.58-.64,2.08,2.08,0,0,0,.21-.94,2,2,0,0,0-.22-1,1.61,1.61,0,0,0-.61-.64,1.69,1.69,0,0,0-.88-.23h-1v3.64h1.12A1.6,1.6,0,0,0,201.07,81Z"/><path class="cls-1" d="M208.82,82.58l-.43-1.12h-2.73l-.44,1.12h-1.69l2.71-6.31h1.69l2.65,6.31Zm-2.66-2.38h1.75L207,78Z"/><path class="cls-1" d="M211.14,76.27h1.65v6.31h-1.65Z"/><path class="cls-1" d="M217.8,82.58l-.92-1.75h-1.22v1.75H214V76.27h2.83a2.93,2.93,0,0,1,1.94.58,2,2,0,0,1,.69,1.63,2.49,2.49,0,0,1-.29,1.23,2,2,0,0,1-.84.81l1.31,2.06Zm-2.14-3.06h1.2a1.11,1.11,0,0,0,.78-.25.94.94,0,0,0,.27-.73.9.9,0,0,0-.27-.71,1.12,1.12,0,0,0-.78-.25h-1.2Z"/><path class="cls-1" d="M226.06,76.27l-2.28,4.29v2h-1.65v-2l-2.32-4.34h1.65L223,79l1.46-2.71Z"/><path class="cls-1" d="M32.31,6.16a29.4,29.4,0,1,1-29.4,29.4,29.43,29.43,0,0,1,29.4-29.4m0-2.91A32.31,32.31,0,1,0,64.61,35.56,32.31,32.31,0,0,0,32.31,3.25Z"/><rect class="cls-1" x="8.45" y="49.86" width="16.22" height="2.91" transform="translate(-31.43 26.74) rotate(-45)"/><rect class="cls-1" x="38.93" y="18.59" width="17.79" height="2.91" transform="translate(-0.17 39.69) rotate(-45)"/><path class="cls-1" d="M48.59,49.83c4-8.82,3.39-11.31-3.68-17.08-2.4,7.92-3.64,12.1,3.68,17.08Zm-2,2c-8.82,4-11.31,3.39-17.08-3.68,7.92-2.4,12.1-3.64,17.08,3.68ZM25.2,28.49c-9.39-1.76-9.71-2.25-11.65-11.65,9.39,2.05,10,2.59,11.65,11.65Zm5.46,7.42c-5-7.32-9.16-6.08-17.08-3.69,5.78,7.07,8.27,7.68,17.08,3.69Zm2-2c4-8.82,3.39-11.31-3.69-17.08-2.4,7.92-3.64,12.1,3.69,17.08ZM38.73,44c-8.82,4-11.31,3.39-17.08-3.68,7.92-2.4,12.1-3.64,17.08,3.68Zm2-2c-7.32-5-6.08-9.16-3.68-17.08C44.12,30.67,44.72,33.16,40.73,42Z"/><path class="cls-1" d="M9.5,76.27H11v6.31H9.59L6.72,78.81v3.77H5.19V76.27H6.63l2.87,3.8Z"/><path class="cls-1" d="M17,76.59a3.14,3.14,0,0,1,1.67,2.82A3.19,3.19,0,0,1,17,82.26a3.74,3.74,0,0,1-3.48,0,3.17,3.17,0,0,1-1.22-1.18,3.23,3.23,0,0,1-.45-1.68,3.14,3.14,0,0,1,.45-1.66,3.18,3.18,0,0,1,1.22-1.16,3.8,3.8,0,0,1,3.48,0Zm-2.59,1.22a1.74,1.74,0,0,0-.63.67,1.93,1.93,0,0,0-.23.94,1.91,1.91,0,0,0,.24.95,1.83,1.83,0,0,0,.63.68,1.6,1.6,0,0,0,.86.25,1.58,1.58,0,0,0,.86-.25,1.74,1.74,0,0,0,.62-.68,2.1,2.1,0,0,0,0-1.89,1.7,1.7,0,0,0-.62-.67,1.6,1.6,0,0,0-.86-.24A1.64,1.64,0,0,0,14.41,77.81Z"/><path class="cls-1" d="M27.67,79.36h1.42v2.51a4.21,4.21,0,0,1-1.24.6,4.68,4.68,0,0,1-1.39.23,3.49,3.49,0,0,1-1.72-.43,3.17,3.17,0,0,1-1.21-1.17,3.23,3.23,0,0,1-.44-1.67,3.11,3.11,0,0,1,.45-1.66,3.19,3.19,0,0,1,1.25-1.17,3.74,3.74,0,0,1,1.78-.42,4.07,4.07,0,0,1,1.4.26,3.65,3.65,0,0,1,1.19.69l-.94,1.15a2.62,2.62,0,0,0-.79-.51,2.23,2.23,0,0,0-.88-.19,1.73,1.73,0,0,0-1.55.91,1.92,1.92,0,0,0-.23.94,2,2,0,0,0,.23,1,1.72,1.72,0,0,0,.65.67,1.78,1.78,0,0,0,.92.24A2.49,2.49,0,0,0,27.67,81Z"/><path class="cls-1" d="M30.18,76.27h1.65v4.9H34.5v1.4H30.18Z"/><path class="cls-1" d="M37.13,80.93a1.19,1.19,0,0,0,.89.36,1.11,1.11,0,0,0,.86-.36,1.36,1.36,0,0,0,.33-1V76.27h1.65V80a2.88,2.88,0,0,1-.35,1.44,2.35,2.35,0,0,1-1,.95A3.24,3.24,0,0,1,38,82.7a3.29,3.29,0,0,1-1.52-.33,2.39,2.39,0,0,1-1-.95A2.83,2.83,0,0,1,35.14,80V76.27h1.65V80A1.31,1.31,0,0,0,37.13,80.93Z"/><path class="cls-1" d="M41.44,76.27h5.41v1.36H45v5H43.31v-5H41.44Z"/><path class="cls-1" d="M47.51,76.27h5v1.31H49.16v1.18h3v1.31h-3v1.19h3.42v1.31H47.51Z"/><path class="cls-1" d="M57.9,76.27h1.53v6.31H58l-2.86-3.77v3.77H53.59V76.27H55l2.87,3.8Z"/><path class="cls-1" d="M117.46,6.93a29.4,29.4,0,1,1-29.4,29.4,29.43,29.43,0,0,1,29.4-29.4m0-2.91a32.31,32.31,0,1,0,32.31,32.31A32.31,32.31,0,0,0,117.46,4Z"/><rect class="cls-1" x="93.2" y="49.66" width="18.95" height="2.91" transform="translate(-6.07 87.58) rotate(-45)"/><rect class="cls-1" x="124.17" y="19.58" width="17.18" height="2.91" transform="translate(24.01 100.03) rotate(-45)"/><path class="cls-1" d="M135.06,51.78,133.23,50a9.42,9.42,0,0,0-6.39-15.32,9.45,9.45,0,0,0-8.46-8.46,9.44,9.44,0,0,0-9.39-8.5H99.57V27.1a9.45,9.45,0,0,0,8.5,9.39,9.45,9.45,0,0,0,8.46,8.46,9.42,9.42,0,0,0,15.32,6.39l1.83,1.83a1,1,0,1,0,1.38-1.38Zm-9.15-4.52A3.25,3.25,0,1,1,129.17,44,3.26,3.26,0,0,1,125.91,47.27ZM105.75,27.1A3.25,3.25,0,1,1,109,30.35,3.26,3.26,0,0,1,105.75,27.1Zm8.46,8.46a3.25,3.25,0,1,1,3.25,3.25A3.26,3.26,0,0,1,114.21,35.56Z"/><path class="cls-1" d="M103.33,76.27h1.53v6.31h-1.44l-2.86-3.77v3.77H99V76.27h1.45l2.87,3.8Z"/><path class="cls-1" d="M110.84,76.59a3.14,3.14,0,0,1,1.67,2.82,3.19,3.19,0,0,1-1.67,2.85,3.74,3.74,0,0,1-3.48,0,3.17,3.17,0,0,1-1.22-1.18,3.23,3.23,0,0,1-.45-1.68,3.14,3.14,0,0,1,.45-1.66,3.18,3.18,0,0,1,1.22-1.16,3.8,3.8,0,0,1,3.48,0Zm-2.59,1.22a1.74,1.74,0,0,0-.63.67,1.93,1.93,0,0,0-.23.94,1.91,1.91,0,0,0,.24.95,1.83,1.83,0,0,0,.63.68,1.6,1.6,0,0,0,.86.25A1.58,1.58,0,0,0,110,81a1.74,1.74,0,0,0,.62-.68,2.1,2.1,0,0,0,0-1.89,1.7,1.7,0,0,0-.62-.67,1.6,1.6,0,0,0-.86-.24A1.64,1.64,0,0,0,108.25,77.81Z"/><path class="cls-1" d="M120.59,77.68a3.16,3.16,0,0,0-1-.19.89.89,0,0,0-.48.11.37.37,0,0,0-.18.33.45.45,0,0,0,.15.35,1.17,1.17,0,0,0,.38.23l.67.22a8.65,8.65,0,0,1,1.08.38,1.9,1.9,0,0,1,.73.58,1.61,1.61,0,0,1,.31,1,1.74,1.74,0,0,1-.33,1.08,2,2,0,0,1-.91.67,3.56,3.56,0,0,1-1.29.22,4.65,4.65,0,0,1-1.56-.27,4.27,4.27,0,0,1-1.35-.75l.64-1.29a4,4,0,0,0,1.13.69,3.07,3.07,0,0,0,1.16.27,1.07,1.07,0,0,0,.58-.13.44.44,0,0,0,.21-.4.47.47,0,0,0-.16-.36,1.14,1.14,0,0,0-.4-.23l-.67-.2a8.3,8.3,0,0,1-1.07-.36,1.89,1.89,0,0,1-.72-.56,1.54,1.54,0,0,1-.3-1,1.74,1.74,0,0,1,.31-1,2,2,0,0,1,.88-.68,3.42,3.42,0,0,1,1.33-.24,4.82,4.82,0,0,1,1.35.19,4.42,4.42,0,0,1,1.17.52l-.62,1.31A5.57,5.57,0,0,0,120.59,77.68Z"/><path class="cls-1" d="M127.88,76.59a3.14,3.14,0,0,1,1.67,2.82,3.19,3.19,0,0,1-1.67,2.85,3.74,3.74,0,0,1-3.48,0,3.17,3.17,0,0,1-1.22-1.18,3.23,3.23,0,0,1-.45-1.68,3.14,3.14,0,0,1,.45-1.66,3.18,3.18,0,0,1,1.22-1.16,3.8,3.8,0,0,1,3.48,0Zm-2.59,1.22a1.74,1.74,0,0,0-.63.67,1.93,1.93,0,0,0-.23.94,1.91,1.91,0,0,0,.24.95,1.83,1.83,0,0,0,.63.68,1.6,1.6,0,0,0,.86.25A1.58,1.58,0,0,0,127,81a1.74,1.74,0,0,0,.62-.68,2.1,2.1,0,0,0,0-1.89,1.7,1.7,0,0,0-.62-.67,1.6,1.6,0,0,0-.86-.24A1.64,1.64,0,0,0,125.29,77.81Z"/><path class="cls-1" d="M135.9,76.27l-2.28,4.29v2H132v-2l-2.32-4.34h1.65L132.79,79l1.46-2.71Z"/><path class="cls-1" d="M287.76,7.88a29.4,29.4,0,1,1-29.4,29.4,29.43,29.43,0,0,1,29.4-29.4m0-2.91a32.31,32.31,0,1,0,32.31,32.31A32.31,32.31,0,0,0,287.76,5Z"/><rect class="cls-1" x="301.26" y="17.72" width="9.24" height="2.91" transform="translate(76.01 221.89) rotate(-45)"/><rect class="cls-1" x="264.12" y="54.56" width="9.82" height="2.91" transform="translate(39.19 206.64) rotate(-45)"/><path class="cls-1" d="M277.71,22.24l2.78,9.36V22.24h2.1V36.16h-2.25l-2.89-8.91v8.91h-2.1V22.24Z"/><path class="cls-1" d="M287.76,22.07a3.33,3.33,0,0,1,3.33,3.33V33a3.32,3.32,0,1,1-6.65,0V25.4a3.33,3.33,0,0,1,3.32-3.33Zm1.14,3.29a1.19,1.19,0,0,0-1.2-1.2,1.17,1.17,0,0,0-.85.35,1.15,1.15,0,0,0-.36.85V33a1.15,1.15,0,0,0,.36.85,1.17,1.17,0,0,0,.85.35,1.19,1.19,0,0,0,1.2-1.2Z"/><path class="cls-1" d="M295.28,22.24l2.78,9.36V22.24h2.1V36.16h-2.25L295,27.25v8.91h-2.1V22.24Z"/><path class="cls-1" d="M277.74,52.49a3.33,3.33,0,0,1-3.33-3.32V41.58a3.32,3.32,0,1,1,6.65,0v1.59h-2.18V41.53a1.21,1.21,0,0,0-1.21-1.21,1.15,1.15,0,0,0-.85.36,1.17,1.17,0,0,0-.35.85v7.62a1.19,1.19,0,0,0,1.2,1.2,1.18,1.18,0,0,0,.85-.35,1.14,1.14,0,0,0,.36-.85V46.42h-1.17V44.31h3.34v4.86a3.32,3.32,0,0,1-3.32,3.32Z"/><path class="cls-1" d="M285,52.31h-2.1V38.39h3l2,10,1.88-10h2.89V52.31h-2.1V43.57l-1.82,8.75H287l-2-8.73Z"/><path class="cls-1" d="M297.78,38.23a3.33,3.33,0,0,1,3.33,3.33v7.59a3.32,3.32,0,1,1-6.65,0V41.56a3.33,3.33,0,0,1,3.32-3.33Zm1.14,3.29a1.19,1.19,0,0,0-1.2-1.2,1.17,1.17,0,0,0-.85.35,1.15,1.15,0,0,0-.36.85v7.62a1.15,1.15,0,0,0,.36.85,1.17,1.17,0,0,0,.85.35,1.19,1.19,0,0,0,1.2-1.2Z"/><path class="cls-1" d="M269.84,76.27h1.53v6.31h-1.44l-2.86-3.77v3.77h-1.54V76.27H267l2.87,3.8Z"/><path class="cls-1" d="M277.35,76.59A3.14,3.14,0,0,1,279,79.41a3.19,3.19,0,0,1-1.67,2.85,3.74,3.74,0,0,1-3.48,0,3.17,3.17,0,0,1-1.22-1.18,3.23,3.23,0,0,1-.45-1.68,3.14,3.14,0,0,1,.45-1.66,3.18,3.18,0,0,1,1.22-1.16,3.8,3.8,0,0,1,3.48,0Zm-2.59,1.22a1.74,1.74,0,0,0-.63.67,1.93,1.93,0,0,0-.23.94,1.91,1.91,0,0,0,.24.95,1.83,1.83,0,0,0,.63.68,1.6,1.6,0,0,0,.86.25,1.58,1.58,0,0,0,.86-.25,1.74,1.74,0,0,0,.62-.68,2.1,2.1,0,0,0,0-1.89,1.7,1.7,0,0,0-.62-.67,1.6,1.6,0,0,0-.86-.24A1.64,1.64,0,0,0,274.76,77.81Z"/><path class="cls-1" d="M288,79.36h1.42v2.51a4.21,4.21,0,0,1-1.24.6,4.68,4.68,0,0,1-1.39.23,3.49,3.49,0,0,1-1.72-.43,3.17,3.17,0,0,1-1.21-1.17,3.23,3.23,0,0,1-.44-1.67,3.11,3.11,0,0,1,.45-1.66,3.19,3.19,0,0,1,1.25-1.17,3.74,3.74,0,0,1,1.78-.42,4.07,4.07,0,0,1,1.4.26,3.65,3.65,0,0,1,1.19.69l-.94,1.15a2.62,2.62,0,0,0-.79-.51,2.23,2.23,0,0,0-.88-.19,1.73,1.73,0,0,0-1.55.91,1.92,1.92,0,0,0-.23.94,2,2,0,0,0,.23,1A1.72,1.72,0,0,0,286,81a1.78,1.78,0,0,0,.92.24A2.49,2.49,0,0,0,288,81Z"/><path class="cls-1" d="M290.52,76.27h1.79L294.14,80,296,76.27h1.79v6.31h-1.46v-4l-1.61,3.37h-1.06L292,78.58v4h-1.47Z"/><path class="cls-1" d="M303.72,76.59a3.14,3.14,0,0,1,1.67,2.82,3.19,3.19,0,0,1-1.67,2.85,3.74,3.74,0,0,1-3.48,0A3.17,3.17,0,0,1,299,81.09a3.23,3.23,0,0,1-.45-1.68,3.14,3.14,0,0,1,.45-1.66,3.18,3.18,0,0,1,1.22-1.16,3.8,3.8,0,0,1,3.48,0Zm-2.59,1.22a1.74,1.74,0,0,0-.63.67,1.93,1.93,0,0,0-.23.94,1.91,1.91,0,0,0,.24.95,1.83,1.83,0,0,0,.63.68,1.6,1.6,0,0,0,.86.25,1.58,1.58,0,0,0,.86-.25,1.74,1.74,0,0,0,.62-.68,2.1,2.1,0,0,0,0-1.89,1.7,1.7,0,0,0-.62-.67,1.6,1.6,0,0,0-.86-.24A1.64,1.64,0,0,0,301.13,77.81Z"/><path class="cls-1" d="M307.91,78.75a.63.63,0,0,0-.33.08.25.25,0,0,0-.13.23.3.3,0,0,0,.2.26,3.75,3.75,0,0,0,.63.22,7.86,7.86,0,0,1,.87.3,1.58,1.58,0,0,1,.6.45,1.18,1.18,0,0,1,.25.79,1.35,1.35,0,0,1-.57,1.16,2.46,2.46,0,0,1-1.49.42,4,4,0,0,1-1.19-.18,3.14,3.14,0,0,1-1-.52l.5-1a3.52,3.52,0,0,0,.87.45,2.62,2.62,0,0,0,.86.16.77.77,0,0,0,.37-.08.24.24,0,0,0,.14-.22.31.31,0,0,0-.2-.28,3.83,3.83,0,0,0-.63-.22,7.27,7.27,0,0,1-.85-.3,1.59,1.59,0,0,1-.58-.45,1.17,1.17,0,0,1-.25-.77,1.37,1.37,0,0,1,.56-1.16,2.33,2.33,0,0,1,1.44-.42,3.9,3.9,0,0,1,1,.14,3.86,3.86,0,0,1,1,.42l-.54,1A3.57,3.57,0,0,0,307.91,78.75Z"/></g></g></svg>