<svg xmlns="http://www.w3.org/2000/svg" viewBox="0 0 57.65 60.04"><defs><style>.cls-1{fill:#393a47;}</style></defs><title>Asset 3</title><g id="Layer_2" data-name="Layer 2"><g id="How_It_Works_Header_Section" data-name="How It Works Header Section"><path class="cls-1" d="M57.58,10.6a3.52,3.52,0,0,0-1.87-2.52c-1.57-.81-3.79-.56-5.65-.1,1.24-1.88,2.08-3.83,1.84-5.37A3,3,0,0,0,50,.22c-2.43-.94-5.86,1.4-8,3.22a3.39,3.39,0,0,0-2.65-2.08,5.43,5.43,0,0,0-4.38.78C32.17,4,31,8,30.54,9.72a17.15,17.15,0,0,0-9.45,2.39C7.27,20.12.37,36.91.08,37.62A1.13,1.13,0,0,0,1,39.17a55.78,55.78,0,0,0,7.12.4,65,65,0,0,0,11.33-1,1.13,1.13,0,0,0,.44-.19L26.1,50.05c2.28,4.28,6.09,6.2,10.1,5.19.47.89,1.27,2.41,2.23,4.2a1.14,1.14,0,0,0,2-1.07c-1.52-2.84-2.65-5-2.65-5a1.14,1.14,0,0,0-1.4-.54C33.11,54,30,52.58,28.1,49L22,37.6a5.93,5.93,0,0,0,1.82-.94l3.62,6.76a3.48,3.48,0,0,0,2.05,1.72A3.24,3.24,0,0,0,32,44.89a3.33,3.33,0,0,0,1.28-4.58l-4-7.28a5.07,5.07,0,0,0,1.83-.92l4,7.25a3.29,3.29,0,1,0,5.81-3.1l-4.25-8.12a6.56,6.56,0,0,0,1.8-1l6.7,12.71a6.79,6.79,0,0,1-1.57,8.9,1.13,1.13,0,0,0-.26,1.39l5,9.27a1.14,1.14,0,0,0,1,.6,1.11,1.11,0,0,0,.54-.14,1.13,1.13,0,0,0,.46-1.54l-4.55-8.5a9.08,9.08,0,0,0,1.42-11.05L40.72,26.68s0,0,.06-.07a13.71,13.71,0,0,0,.59-2,21.12,21.12,0,0,0,6.25,1.22c1.89,0,3.58-.51,4.28-2.08a3.69,3.69,0,0,0,0-3.09A5.09,5.09,0,0,0,50.54,19C53.31,17.39,58.29,14,57.58,10.6ZM30,25.5a1.13,1.13,0,0,1-1.55-.41L28,24.42A1.14,1.14,0,0,1,30,23.25l.41.69A1.14,1.14,0,0,1,30,25.5Zm.91,17.39a.94.94,0,0,1-.74.08,1.24,1.24,0,0,1-.71-.62l-3-5.57c.64-.22,1.29-.43,1.89-.67l2.89,5.27A1.06,1.06,0,0,1,30.89,42.89Zm7.61-4.07A1.06,1.06,0,0,1,37,38.28l-2.76-5c.62-.38,1.2-.75,1.8-1.2l2.77,5.29A1.06,1.06,0,0,1,38.5,38.82Zm9.82-21.24a11.69,11.69,0,0,0-1.15-.45,1.14,1.14,0,0,0-.68,2.17c.7.22,2.83,1.13,3.38,2.35a1.41,1.41,0,0,1,0,1.23c-.62,1.39-5,.62-8.15-.51,0-.12,0-.24,0-.35a.94.94,0,0,0,0-.14,13,13,0,0,0-1.88-6.19,12.41,12.41,0,0,0-3.62-4,1.14,1.14,0,0,0-1.3,1.86,10.2,10.2,0,0,1,3,3.32l0,.07C35.67,14.78,31.66,13,25,15.83c-.18.07-.35.18-.52.26A28,28,0,0,1,28,20.21a1.14,1.14,0,0,1-1.84,1.33,24.8,24.8,0,0,0-3.86-4.31,35.12,35.12,0,0,0-6.33,5,20,20,0,0,1,6,8.7,1.14,1.14,0,0,1-.8,1.39,1.19,1.19,0,0,1-.29,0,1.13,1.13,0,0,1-1.1-.84,17.77,17.77,0,0,0-5.44-7.65A81.21,81.21,0,0,0,4.42,37.2l-1.61-.11c2-4.18,8.52-16.69,19.42-23,1.18-.68,5.34-2.83,9.58-1.91a1.14,1.14,0,0,0,1.35-.87,1.12,1.12,0,0,0-.4-1.11c.42-1.76,1.5-4.9,3.39-6.16a3.23,3.23,0,0,1,2.62-.46c.85.19,1,.55,1,.68.39,1.06-.77,3.35-1.73,4.63a1.14,1.14,0,0,0,1.82,1.36A13.78,13.78,0,0,0,41.83,6.6C44,4.49,47.67,1.76,49.14,2.34a.7.7,0,0,1,.53.61c.27,1.8-2.6,6-5.9,8.66a1.14,1.14,0,0,0,.71,2,1.12,1.12,0,0,0,.71-.25,23.31,23.31,0,0,0,2.3-2.15l.09,0c1.93-.85,5.55-1.9,7.1-1.1a1.27,1.27,0,0,1,.69,1C55.73,12.87,51.48,16,48.32,17.58Z"/></g></g></svg>