<svg xmlns="http://www.w3.org/2000/svg" viewBox="0 0 69.19 66.63"><defs><style>.cls-1{fill:#393a47;}</style></defs><title>Asset 2</title><g id="Layer_2" data-name="Layer 2"><g id="How_It_Works_Header_Section" data-name="How It Works Header Section"><path class="cls-1" d="M33.17,55.22a1.68,1.68,0,0,0-1.37-3A9,9,0,0,0,25.62,56a27.44,27.44,0,0,1-.75-7.1,1.83,1.83,0,0,0-.74-1.37,1.9,1.9,0,0,0-1.76-.17c-4,1.66-5.58,5.69-6.08,7.41-.14.6-.26,1.35-.38,2.15s-.23,1.53-.4,2.3c-1.88-2.22-4.79-5-6-5.1a1.61,1.61,0,0,0-1.45.67,1.74,1.74,0,0,0,0,1.9c.65,1.22.42,2.74.15,4.5A15.14,15.14,0,0,0,8,65.34,1.47,1.47,0,0,0,9.5,66.63h.18A1.47,1.47,0,0,0,11,65a12.78,12.78,0,0,1,.23-3.32,23.12,23.12,0,0,0,.29-2.47,17.78,17.78,0,0,1,3,3.49,1.36,1.36,0,0,0,1.72.86,1.46,1.46,0,0,0,.75-.42c1.25-1.3,1.6-3.66,1.91-5.75.1-.7.2-1.36.31-1.83A9.3,9.3,0,0,1,22,51c.18,4.31.94,7.21,2.36,9.07a1.47,1.47,0,0,0,2.53-.36A9,9,0,0,1,29,56.66a8.3,8.3,0,0,0,1.25,4.61c.63,1.24,1.23,2.42,1,3.5a1.47,1.47,0,0,0,2.88.56c.4-2.07-.49-3.83-1.28-5.38C31.66,57.57,31.34,56.68,33.17,55.22Z"/><path class="cls-1" d="M22.08,20.69h.13a1.47,1.47,0,0,0,.12-2.93,1.47,1.47,0,0,1-1-.66c-.17-.36-.5-1.81,2.12-5.56s3.66-6.88,2.86-9.11A3.82,3.82,0,0,0,23.84.05a1.44,1.44,0,0,0-1.76,1A1.5,1.5,0,0,0,23,2.86a.93.93,0,0,1,.52.62c.18.58.3,2.36-2.52,6.39-2.56,3.65-3.33,6.43-2.37,8.48A4.33,4.33,0,0,0,22.08,20.69Z"/><path class="cls-1" d="M29.87,19.14H30a1.44,1.44,0,0,0,1.42-1.35A1.5,1.5,0,0,0,30,16.21s-.17-.66,1.15-2.54c1.68-2.4,2.24-4.29,1.71-5.77a2.82,2.82,0,0,0-1.81-1.76,1.54,1.54,0,0,0-1.89,1,1.38,1.38,0,0,0,.94,1.76s.27.79-1.34,3.1-2.06,4.07-1.41,5.46A3.06,3.06,0,0,0,29.87,19.14Z"/><path class="cls-1" d="M12.92,19.14H13a1.44,1.44,0,0,0,1.42-1.35,1.5,1.5,0,0,0-1.37-1.59s-.17-.66,1.15-2.54c1.68-2.4,2.24-4.29,1.71-5.77a2.82,2.82,0,0,0-1.81-1.76,1.54,1.54,0,0,0-1.89,1,1.38,1.38,0,0,0,.94,1.76s.27.79-1.34,3.1-2.06,4.07-1.41,5.46A3.06,3.06,0,0,0,12.92,19.14Z"/><path class="cls-1" d="M68.67,12.45a1.46,1.46,0,0,0-1.19-.33l-24.78,4c-.65-1.37-2.26-2.9-5.89-4.19a1.47,1.47,0,0,0-1,2.76c3,1.07,4.35,2.32,4.35,3.09,0,.45-.37.94-1,1.44l0,0C36.69,21,30.28,22.9,21.55,22.9c-8.46,0-14.77-1.76-17.34-3.51a1.42,1.42,0,0,0-.33-.25c-.61-.48-.95-.95-.95-1.37,0-.79,1.42-2.08,4.57-3.17a1.47,1.47,0,0,0-1-2.78C1.14,13.69,0,16.09,0,17.77a4.58,4.58,0,0,0,1.86,3.49l3,17.34c0,4.44,8.66,6.47,16.7,6.47s16.7-2,16.68-6.22l2.32-13.32,27.56-7.67a1.47,1.47,0,0,0,1.07-1.41V13.57A1.47,1.47,0,0,0,68.67,12.45ZM37.83,24.14v.06L35.32,38.6c0,1-4.82,3.53-13.77,3.53a36.91,36.91,0,0,1-7.8-.77L11.46,27.7a1.32,1.32,0,1,0-2.6.44l2.09,12.44c-2.06-.76-3.17-1.62-3.18-2.22L5.16,23.18c4.16,1.75,10.29,2.65,16.39,2.65S33.84,24.92,38,23.16Zm3.29-1.81.2-1.13a5.21,5.21,0,0,0,1.54-2.14l23.4-3.78Z"/></g></g></svg>