<svg xmlns="http://www.w3.org/2000/svg" viewBox="0 0 62.82 55.96"><defs><style>.cls-1{fill:#393a47;}</style></defs><title>Asset 1</title><g id="Layer_2" data-name="Layer 2"><g id="How_It_Works_Header_Section" data-name="How It Works Header Section"><g id="You_Pick_Icon_and_Text" data-name="You Pick Icon and Text"><path class="cls-1" d="M32.6,32.22a1.66,1.66,0,0,1-1-.3l-7-4.83a1.67,1.67,0,0,1,1.9-2.74l5.61,3.9,9.12-12.69A1.67,1.67,0,1,1,44,17.5L34,31.52A1.67,1.67,0,0,1,32.6,32.22Z"/><path class="cls-1" d="M62.45,8.54A1.81,1.81,0,0,0,61,7.82L46.95,7.75H46l-.09,0L25.42,7.57l-.08,0H24.23L11,7.46,9.46,1.4A1.81,1.81,0,0,0,7.72,0L1.82,0a1.81,1.81,0,0,0,0,3.61l4.51,0L7.86,9.71l7.45,28.66L17,45.29a1.81,1.81,0,0,0,1.43,1.36,6.14,6.14,0,1,0,10.77.11l11.37.08a6.15,6.15,0,1,0,10.77,0A1.8,1.8,0,0,0,51,43.3l-30.87-.23-.79-3.33L53.13,40a1.81,1.81,0,0,0,1.76-1.33l7.87-28.55A1.81,1.81,0,0,0,62.45,8.54ZM45.92,47.29a2.53,2.53,0,1,1-2.55,2.51A2.53,2.53,0,0,1,45.92,47.29Zm-22.16-.16a2.53,2.53,0,1,1-2.55,2.51A2.53,2.53,0,0,1,23.76,47.12Zm28-10.76-33.31-.24L15.68,25.41,12,11.08l7.3,0h0l31.16.29v0l8.23,0Z"/></g></g></g></svg>